<?xml version="1.0" encoding="UTF-8" standalone="no"?><!DOCTYPE svg PUBLIC "-//W3C//DTD SVG 1.1//EN" "http://www.w3.org/Graphics/SVG/1.1/DTD/svg11.dtd"><svg width="100%" height="100%" viewBox="0 0 1700 417" version="1.1" xmlns="http://www.w3.org/2000/svg" xmlns:xlink="http://www.w3.org/1999/xlink" xml:space="preserve" xmlns:serif="http://www.serif.com/" style="fill-rule:evenodd;clip-rule:evenodd;stroke-linejoin:round;"><g transform="matrix(13.38283,0,0,13.38283,-4864.581204,-5197.699482)"><text x="393.546px" y="412.941px" style="font-family:'Inter18pt-Bold', 'Inter 18pt';font-weight:700;font-size:24px;fill:#1a1d22;">sil<tspan x="419.761px 433.472px " y="412.941px 412.941px ">ve</tspan>r</text><g transform="matrix(24,0,0,24,487.050249,412.941167)"></g><text x="457.179px" y="412.941px" style="font-family:'Inter18pt-Light', 'Inter 18pt';font-weight:300;font-size:24px;fill:#868b94;">-ui</text></g><path d="M205.298,216.667l0,-166.667l158.5,115.167l-158.5,51.5Z" style="fill:#9aa0aa;fill-rule:nonzero;"/><path d="M205.298,216.667l158.5,-51.5l-60.542,186.333l-97.958,-134.833Z" style="fill:#c9ccd3;fill-rule:nonzero;"/><path d="M205.298,216.667l97.958,134.833l-195.917,0l97.958,-134.833Z" style="fill:#d4d7dd;fill-rule:nonzero;"/><path d="M205.298,216.667l-97.958,134.833l-60.542,-186.333l158.5,51.5Z" style="fill:#f4f5f7;fill-rule:nonzero;"/><path d="M205.298,216.667l-158.5,-51.5l158.5,-115.167l0,166.667Z" style="fill:#5b6068;fill-rule:nonzero;"/><path d="M205.298,50l158.5,115.167l-60.542,186.333l-195.917,0l-60.542,-186.333l158.5,-115.167Z" style="fill:none;fill-rule:nonzero;stroke:#5b6068;stroke-width:8.33px;"/></svg>