<?xml version="1.0" encoding="UTF-8" standalone="no"?>
<svg width="1200" height="630" viewBox="0 0 1200 630" version="1.1" xmlns="http://www.w3.org/2000/svg" xmlns:xlink="http://www.w3.org/1999/xlink" style="fill-rule:evenodd;clip-rule:evenodd;stroke-linejoin:round;">
  <defs>
    <linearGradient id="bg" x1="0" y1="0" x2="1" y2="1">
      <stop offset="0" stop-color="#ffffff"/>
      <stop offset="1" stop-color="#eef1f5"/>
    </linearGradient>
  </defs>

  <!-- Background -->
  <rect x="0" y="0" width="1200" height="630" fill="url(#bg)"/>

  <!-- Wordmark (real brand paths, scaled 0.4824 -> 820px wide) -->
  <g transform="translate(190,168) scale(0.4824)">
    <g>
      <path d="M557.807,318.625c-14.115,0 -26.635,-2.065 -37.561,-6.195c-10.926,-4.13 -19.813,-10.116 -26.661,-17.957c-6.848,-7.842 -11.161,-17.251 -12.938,-28.229l44.069,-5.96c1.987,7.946 5.803,13.958 11.449,18.035c5.646,4.078 13.174,6.116 22.584,6.116c8.887,0 15.892,-1.699 21.015,-5.097c5.123,-3.398 7.685,-7.711 7.685,-12.938c0,-4.496 -1.856,-8.181 -5.567,-11.057c-3.712,-2.875 -9.279,-5.097 -16.702,-6.665l-29.955,-5.96c-16.729,-3.45 -29.275,-9.305 -37.639,-17.565c-8.364,-8.26 -12.546,-18.924 -12.546,-31.993c0,-10.978 3.006,-20.492 9.018,-28.543c6.012,-8.051 14.481,-14.272 25.406,-18.663c10.926,-4.391 23.707,-6.587 38.345,-6.587c14.01,0 26.138,1.987 36.385,5.96c10.246,3.973 18.48,9.619 24.701,16.938c6.221,7.319 10.168,15.944 11.841,25.877l-41.874,5.803c-1.464,-6.169 -4.731,-11.213 -9.802,-15.134c-5.071,-3.921 -11.841,-5.881 -20.309,-5.881c-7.842,0 -14.298,1.647 -19.369,4.94c-5.071,3.293 -7.606,7.554 -7.606,12.782c0,4.391 1.725,8.077 5.175,11.057c3.45,2.98 9.096,5.254 16.938,6.822l31.366,6.273c16.938,3.346 29.51,8.887 37.718,16.624c8.207,7.737 12.311,17.826 12.311,30.268c0,11.396 -3.293,21.355 -9.88,29.876c-6.587,8.521 -15.709,15.16 -27.367,19.917c-11.658,4.757 -25.067,7.136 -40.227,7.136Z" style="fill:#1a1d22;fill-rule:nonzero;"/>
      <path d="M665.549,315.018l0,-173.14l46.735,0l0,173.14l-46.735,0Zm23.368,-195.567c-7.214,0 -13.357,-2.352 -18.428,-7.057c-5.071,-4.705 -7.606,-10.455 -7.606,-17.251c0,-6.796 2.535,-12.546 7.606,-17.251c5.071,-4.705 11.213,-7.057 18.428,-7.057c7.214,0 13.331,2.352 18.349,7.057c5.019,4.705 7.528,10.455 7.528,17.251c0,6.796 -2.509,12.546 -7.528,17.251c-5.019,4.705 -11.135,7.057 -18.349,7.057Z" style="fill:#1a1d22;fill-rule:nonzero;"/>
      <rect x="750.865" y="81.341" width="46.735" height="233.677" style="fill:#1a1d22;fill-rule:nonzero;"/>
      <path d="M888.091,315.018l-63.83,-173.14l49.558,0l29.014,88.923c3.555,10.978 6.691,22.061 9.41,33.248c2.718,11.187 5.437,22.74 8.155,34.659l-10.194,0c2.718,-11.919 5.411,-23.446 8.077,-34.581c2.666,-11.135 5.724,-22.244 9.175,-33.326l28.543,-88.923l49.088,0l-63.83,173.14l-53.165,0Z" style="fill:#1a1d22;fill-rule:nonzero;"/>
      <path d="M1101.223,318.468c-17.67,0 -32.908,-3.659 -45.716,-10.978c-12.808,-7.319 -22.688,-17.67 -29.641,-31.052c-6.953,-13.383 -10.429,-29.118 -10.429,-47.206c0,-17.879 3.45,-33.535 10.351,-46.971c6.901,-13.435 16.624,-23.943 29.17,-31.523c12.546,-7.58 27.236,-11.37 44.069,-11.37c11.605,0 22.374,1.882 32.307,5.646c9.933,3.764 18.637,9.331 26.112,16.702c7.476,7.371 13.278,16.572 17.408,27.602c4.13,11.03 6.195,23.76 6.195,38.188l0,13.017l-146.95,0l0,-29.484l124.209,0l-21.799,7.685c0,-8.992 -1.411,-16.781 -4.234,-23.368c-2.823,-6.587 -6.979,-11.684 -12.468,-15.291c-5.489,-3.607 -12.259,-5.411 -20.309,-5.411c-8.051,0 -14.899,1.83 -20.545,5.489c-5.646,3.659 -9.959,8.678 -12.938,15.056c-2.98,6.378 -4.47,13.696 -4.47,21.956l0,20.702c0,9.723 1.673,17.983 5.019,24.779c3.346,6.796 8.077,11.945 14.193,15.448c6.116,3.503 13.252,5.254 21.407,5.254c5.541,0 10.586,-0.81 15.134,-2.431c4.548,-1.621 8.417,-3.973 11.605,-7.057c3.189,-3.084 5.62,-6.874 7.293,-11.37l42.501,6.116c-2.718,10.037 -7.606,18.793 -14.664,26.269c-7.057,7.476 -15.892,13.278 -26.504,17.408c-10.612,4.13 -22.714,6.195 -36.306,6.195Z" style="fill:#1a1d22;fill-rule:nonzero;"/>
      <path d="M1211.631,315.018l0,-173.14l45.324,0l0,29.955l1.568,0c3.137,-10.56 8.364,-18.532 15.683,-23.917c7.319,-5.384 15.997,-8.077 26.034,-8.077c2.509,0 5.123,0.105 7.842,0.314c2.718,0.209 5.071,0.523 7.057,0.941l0,41.403c-1.987,-0.627 -4.94,-1.124 -8.861,-1.49c-3.921,-0.366 -7.711,-0.549 -11.37,-0.549c-6.901,0 -13.148,1.516 -18.741,4.548c-5.594,3.032 -9.959,7.319 -13.095,12.86c-3.137,5.541 -4.705,12.076 -4.705,19.604l0,97.548l-46.735,0Z" style="fill:#1a1d22;fill-rule:nonzero;"/>
      <rect x="1343.368" y="206.334" width="97.391" height="19.604" style="fill:#868b94;fill-rule:nonzero;"/>
      <path d="M1548.816,317.527c-11.71,0 -22.113,-2.483 -31.209,-7.449c-9.096,-4.966 -16.206,-12.233 -21.329,-21.799c-5.123,-9.567 -7.685,-21.198 -7.685,-34.895l0,-111.506l21.015,0l0,109.938c0,14.428 4.025,25.772 12.076,34.032c8.051,8.26 18.82,12.39 32.307,12.39c9.096,0 17.304,-1.934 24.622,-5.803c7.319,-3.868 13.095,-9.488 17.33,-16.859c4.234,-7.371 6.352,-16.18 6.352,-26.426l0,-107.272l21.015,0l0,173.14l-20.388,0l0,-40.462l3.764,0c-4.914,15.16 -12.52,26.112 -22.819,32.856c-10.299,6.744 -21.982,10.116 -35.052,10.116Z" style="fill:#868b94;fill-rule:nonzero;"/>
      <path d="M1674.123,315.018l0,-173.14l21.015,0l0,173.14l-21.015,0Zm10.508,-206.388c-4.182,0 -7.789,-1.464 -10.821,-4.391c-3.032,-2.927 -4.548,-6.43 -4.548,-10.508c0,-4.078 1.516,-7.554 4.548,-10.429c3.032,-2.875 6.639,-4.313 10.821,-4.313c4.182,0 7.789,1.438 10.821,4.313c3.032,2.875 4.548,6.352 4.548,10.429c0,4.078 -1.516,7.58 -4.548,10.508c-3.032,2.927 -6.639,4.391 -10.821,4.391Z" style="fill:#868b94;fill-rule:nonzero;"/>
    </g>
    <path d="M205.298,216.667l0,-166.667l158.5,115.167l-158.5,51.5Z" style="fill:#9aa0aa;fill-rule:nonzero;"/>
    <path d="M205.298,216.667l158.5,-51.5l-60.542,186.333l-97.958,-134.833Z" style="fill:#c9ccd3;fill-rule:nonzero;"/>
    <path d="M205.298,216.667l97.958,134.833l-195.917,0l97.958,-134.833Z" style="fill:#d4d7dd;fill-rule:nonzero;"/>
    <path d="M205.298,216.667l-97.958,134.833l-60.542,-186.333l158.5,51.5Z" style="fill:#f4f5f7;fill-rule:nonzero;"/>
    <path d="M205.298,216.667l-158.5,-51.5l158.5,-115.167l0,166.667Z" style="fill:#5b6068;fill-rule:nonzero;"/>
    <path d="M205.298,50l158.5,115.167l-60.542,186.333l-195.917,0l-60.542,-186.333l158.5,-115.167Z" style="fill:none;fill-rule:nonzero;stroke:#5b6068;stroke-width:8.33px;"/>
  </g>

  <!-- Tagline -->
  <text x="600" y="470" text-anchor="middle" font-family="DejaVu Sans, sans-serif" font-size="40" fill="#45505b">A themeable React component library</text>

  <!-- URL -->
  <text x="600" y="540" text-anchor="middle" font-family="DejaVu Sans, sans-serif" font-size="27" letter-spacing="1" fill="#8a97a4">silver-ui.com</text>
</svg>
